<?xml version="1.0" encoding="UTF-8"?>
<svg xmlns="http://www.w3.org/2000/svg" xmlns:xlink="http://www.w3.org/1999/xlink" width="24px" height="24px" viewBox="0 0 24 23" version="1.1">
<g id="surface1">
<rect x="0" y="0" width="24" height="23" style="fill:rgb(98.823529%,82.352942%,2.745098%);fill-opacity:1;stroke:none;"/>
<path style=" stroke:none;fill-rule:evenodd;fill:rgb(12.156863%,14.509805%,15.686275%);fill-opacity:1;" d="M 0 18.0625 C 4.742188 16.984375 7.984375 14.9375 8.34375 11.03125 C 8.464844 9.582031 9.117188 8.339844 10.832031 7.507812 C 13.222656 6.617188 14.351562 6.933594 15.324219 7.398438 C 16.390625 8.300781 16.699219 9.605469 15.898438 11.5 C 15.53125 12.605469 12.546875 13.972656 11.175781 14.355469 C 6.652344 16.296875 4.316406 19.105469 4.710938 23 L 0 23 Z M 0 18.0625 "/>
<path style=" stroke:none;fill-rule:evenodd;fill:rgb(12.156863%,14.509805%,15.686275%);fill-opacity:1;" d="M 21.464844 4.503906 C 21.464844 3.335938 20.453125 2.386719 19.199219 2.386719 C 17.949219 2.386719 16.9375 3.335938 16.9375 4.503906 C 16.9375 5.675781 17.949219 6.625 19.199219 6.625 C 20.453125 6.625 21.464844 5.675781 21.464844 4.503906 Z M 21.464844 4.503906 "/>
</g>
</svg>
