<?xml version="1.0" encoding="UTF-8"?>
<svg xmlns="http://www.w3.org/2000/svg" xmlns:xlink="http://www.w3.org/1999/xlink" width="24px" height="24px" viewBox="0 0 24 24" version="1.1">
<g id="surface1">
<path style=" stroke:none;fill-rule:nonzero;fill:rgb(95.294118%,42.352942%,12.941177%);fill-opacity:1;" d="M 24 12 C 24 5.371094 18.628906 0 12 0 C 5.371094 0 0 5.371094 0 12 C 0 18.628906 5.371094 24 12 24 C 18.628906 24 24 18.628906 24 12 Z M 24 12 "/>
<path style=" stroke:none;fill-rule:nonzero;fill:rgb(100%,100%,100%);fill-opacity:1;" d="M 15.730469 8.710938 L 15.800781 8.710938 C 15.886719 8.714844 15.976562 8.757812 16.027344 8.828125 C 16.109375 8.925781 16.128906 9.054688 16.136719 9.179688 C 16.15625 9.558594 16.074219 9.933594 15.964844 10.292969 C 15.828125 10.773438 15.632812 11.230469 15.472656 11.703125 C 15.445312 11.785156 15.417969 11.867188 15.394531 11.953125 C 15.359375 12.09375 15.367188 12.242188 15.359375 12.386719 C 15.355469 12.523438 15.367188 12.660156 15.390625 12.792969 C 15.40625 12.863281 15.4375 12.941406 15.492188 12.992188 C 15.542969 13.039062 15.617188 13.0625 15.6875 13.039062 C 15.777344 13.011719 15.851562 12.941406 15.917969 12.875 C 16.007812 12.773438 16.09375 12.671875 16.15625 12.550781 C 16.246094 12.390625 16.296875 12.214844 16.324219 12.035156 C 16.359375 11.761719 16.386719 11.488281 16.484375 11.230469 C 16.523438 11.128906 16.570312 11.03125 16.660156 10.96875 C 16.777344 10.882812 16.960938 10.917969 17.050781 11.03125 C 17.09375 11.089844 17.105469 11.160156 17.105469 11.230469 C 17.101562 11.320312 17.082031 11.410156 17.054688 11.5 C 16.949219 11.808594 16.886719 12.132812 16.898438 12.460938 C 16.902344 12.535156 16.90625 12.617188 16.949219 12.683594 C 16.980469 12.742188 17.035156 12.785156 17.101562 12.785156 C 17.175781 12.785156 17.242188 12.742188 17.289062 12.6875 C 17.363281 12.605469 17.421875 12.511719 17.46875 12.414062 C 17.5625 12.214844 17.605469 11.996094 17.644531 11.78125 C 17.679688 11.597656 17.710938 11.414062 17.761719 11.234375 C 17.792969 11.144531 17.828125 11.054688 17.894531 10.984375 C 17.9375 10.933594 18.007812 10.914062 18.070312 10.914062 C 18.136719 10.917969 18.195312 10.953125 18.242188 11.003906 C 18.300781 11.070312 18.3125 11.164062 18.308594 11.253906 C 18.242188 11.769531 18.167969 12.289062 18.109375 12.804688 C 18.066406 13.128906 18.03125 13.453125 18.003906 13.777344 C 18 13.8125 18.042969 13.832031 18.066406 13.808594 C 18.234375 13.648438 18.402344 13.480469 18.527344 13.28125 C 18.585938 13.191406 18.628906 13.097656 18.683594 13.007812 C 18.707031 12.96875 18.734375 12.929688 18.78125 12.914062 C 18.847656 12.882812 18.933594 12.890625 18.992188 12.9375 C 19.039062 12.96875 19.0625 13.023438 19.070312 13.078125 L 19.070312 13.140625 C 19.054688 13.25 18.992188 13.339844 18.945312 13.433594 C 18.816406 13.691406 18.636719 13.925781 18.414062 14.113281 C 18.253906 14.246094 18.066406 14.351562 17.871094 14.421875 C 17.859375 14.425781 17.839844 14.429688 17.839844 14.445312 C 17.765625 14.742188 17.605469 15.015625 17.386719 15.230469 C 17.144531 15.46875 16.832031 15.632812 16.503906 15.710938 C 16.320312 15.75 16.132812 15.765625 15.949219 15.734375 C 15.761719 15.699219 15.578125 15.613281 15.445312 15.476562 C 15.324219 15.355469 15.242188 15.191406 15.226562 15.019531 C 15.214844 14.863281 15.253906 14.703125 15.328125 14.5625 C 15.414062 14.40625 15.546875 14.277344 15.699219 14.183594 C 15.847656 14.09375 16.015625 14.054688 16.183594 14.03125 C 16.375 14.011719 16.566406 14.011719 16.761719 14.027344 C 16.878906 14.035156 17 14.046875 17.117188 14.058594 C 17.183594 14.0625 17.257812 14.085938 17.320312 14.054688 C 17.363281 14.03125 17.378906 13.976562 17.386719 13.933594 C 17.414062 13.722656 17.457031 13.507812 17.429688 13.292969 C 17.425781 13.265625 17.417969 13.222656 17.382812 13.222656 C 17.339844 13.238281 17.320312 13.285156 17.296875 13.320312 C 17.222656 13.460938 17.089844 13.570312 16.929688 13.601562 C 16.773438 13.632812 16.601562 13.550781 16.53125 13.410156 C 16.496094 13.351562 16.480469 13.28125 16.425781 13.234375 C 16.390625 13.199219 16.339844 13.199219 16.296875 13.21875 C 16.222656 13.25 16.175781 13.320312 16.113281 13.371094 C 15.953125 13.515625 15.753906 13.621094 15.535156 13.632812 C 15.28125 13.648438 15.019531 13.507812 14.914062 13.273438 C 14.902344 13.238281 14.890625 13.191406 14.847656 13.1875 C 14.800781 13.179688 14.765625 13.21875 14.738281 13.25 C 14.617188 13.410156 14.5 13.578125 14.335938 13.695312 C 14.230469 13.769531 14.101562 13.820312 13.972656 13.820312 C 13.832031 13.816406 13.695312 13.742188 13.628906 13.621094 C 13.597656 13.566406 13.585938 13.496094 13.539062 13.457031 C 13.5 13.421875 13.441406 13.425781 13.402344 13.453125 C 13.339844 13.488281 13.304688 13.550781 13.257812 13.601562 C 13.121094 13.738281 12.921875 13.804688 12.734375 13.785156 C 12.503906 13.761719 12.296875 13.601562 12.210938 13.386719 C 12.199219 13.355469 12.183594 13.320312 12.148438 13.3125 C 12.125 13.304688 12.101562 13.320312 12.085938 13.339844 C 11.960938 13.457031 11.832031 13.574219 11.679688 13.65625 C 11.527344 13.738281 11.355469 13.792969 11.179688 13.789062 C 10.996094 13.789062 10.808594 13.734375 10.660156 13.628906 C 10.53125 13.542969 10.433594 13.421875 10.375 13.277344 C 10.355469 13.238281 10.335938 13.199219 10.292969 13.1875 C 10.257812 13.179688 10.222656 13.207031 10.203125 13.234375 C 10.140625 13.324219 10.058594 13.402344 9.964844 13.460938 C 9.824219 13.550781 9.660156 13.613281 9.488281 13.613281 C 9.359375 13.613281 9.226562 13.566406 9.132812 13.472656 C 9.03125 13.375 8.980469 13.238281 8.957031 13.097656 C 8.933594 12.917969 8.96875 12.734375 9.019531 12.566406 C 9.054688 12.453125 9.097656 12.34375 9.121094 12.230469 C 9.136719 12.171875 9.140625 12.109375 9.113281 12.054688 C 9.09375 12.011719 9.050781 11.984375 9.007812 11.96875 C 8.960938 11.949219 8.910156 11.972656 8.878906 12.003906 C 8.84375 12.035156 8.828125 12.074219 8.808594 12.113281 C 8.695312 12.390625 8.539062 12.652344 8.351562 12.882812 C 8.167969 13.109375 7.949219 13.304688 7.714844 13.472656 C 7.449219 13.664062 7.140625 13.800781 6.816406 13.847656 C 6.578125 13.878906 6.332031 13.859375 6.101562 13.792969 C 5.96875 13.753906 5.832031 13.695312 5.714844 13.613281 C 5.515625 13.472656 5.351562 13.28125 5.238281 13.0625 C 5.148438 12.898438 5.082031 12.71875 5.03125 12.535156 C 4.964844 12.277344 4.941406 12.007812 4.929688 11.742188 L 4.929688 11.558594 C 4.933594 11.363281 4.953125 11.164062 4.992188 10.972656 C 5.0625 10.625 5.1875 10.289062 5.359375 9.976562 C 5.496094 9.734375 5.65625 9.503906 5.863281 9.3125 C 6.085938 9.105469 6.355469 8.945312 6.652344 8.878906 C 6.933594 8.816406 7.238281 8.832031 7.503906 8.953125 C 7.585938 8.988281 7.65625 9.039062 7.738281 9.066406 C 7.796875 9.085938 7.867188 9.078125 7.914062 9.039062 C 7.988281 8.980469 8.023438 8.886719 8.089844 8.816406 C 8.167969 8.730469 8.296875 8.695312 8.410156 8.726562 C 8.515625 8.757812 8.597656 8.851562 8.621094 8.957031 C 8.640625 9.027344 8.628906 9.097656 8.609375 9.167969 C 8.574219 9.261719 8.523438 9.347656 8.46875 9.4375 C 8.300781 9.730469 8.171875 10.050781 8.089844 10.378906 C 8.0625 10.480469 8.042969 10.585938 8 10.683594 C 7.964844 10.773438 7.90625 10.859375 7.820312 10.917969 C 7.75 10.964844 7.652344 10.988281 7.566406 10.964844 C 7.484375 10.941406 7.425781 10.875 7.390625 10.800781 C 7.355469 10.71875 7.34375 10.628906 7.355469 10.539062 C 7.378906 10.332031 7.492188 10.140625 7.496094 9.929688 C 7.503906 9.808594 7.460938 9.683594 7.367188 9.605469 C 7.238281 9.496094 7.050781 9.464844 6.886719 9.488281 C 6.6875 9.511719 6.503906 9.605469 6.359375 9.742188 C 6.203125 9.886719 6.085938 10.070312 5.992188 10.257812 C 5.71875 10.800781 5.597656 11.425781 5.667969 12.03125 C 5.691406 12.226562 5.738281 12.425781 5.832031 12.601562 C 5.890625 12.714844 5.96875 12.816406 6.066406 12.894531 C 6.191406 13 6.339844 13.070312 6.5 13.097656 C 6.726562 13.144531 6.964844 13.113281 7.179688 13.03125 C 7.464844 12.921875 7.714844 12.722656 7.910156 12.492188 C 8.015625 12.371094 8.105469 12.242188 8.195312 12.109375 C 8.285156 11.984375 8.378906 11.851562 8.414062 11.699219 C 8.4375 11.597656 8.417969 11.496094 8.394531 11.398438 C 8.375 11.261719 8.429688 11.125 8.515625 11.023438 C 8.574219 10.964844 8.644531 10.910156 8.726562 10.894531 C 8.804688 10.878906 8.890625 10.894531 8.957031 10.941406 C 9.027344 10.996094 9.066406 11.09375 9.039062 11.179688 C 9.023438 11.234375 9.003906 11.292969 9.019531 11.351562 C 9.039062 11.402344 9.085938 11.433594 9.136719 11.433594 C 9.25 11.445312 9.367188 11.421875 9.472656 11.460938 C 9.601562 11.511719 9.710938 11.609375 9.753906 11.746094 C 9.78125 11.832031 9.792969 11.933594 9.765625 12.023438 C 9.714844 12.195312 9.652344 12.367188 9.621094 12.546875 C 9.613281 12.605469 9.601562 12.664062 9.617188 12.722656 C 9.628906 12.765625 9.664062 12.804688 9.710938 12.804688 C 9.789062 12.8125 9.859375 12.769531 9.910156 12.71875 C 10.023438 12.609375 10.09375 12.46875 10.144531 12.324219 C 10.210938 12.148438 10.242188 11.960938 10.289062 11.78125 C 10.339844 11.597656 10.414062 11.417969 10.53125 11.265625 C 10.703125 11.035156 10.984375 10.886719 11.277344 10.894531 C 11.4375 10.894531 11.597656 10.960938 11.710938 11.078125 C 11.808594 11.175781 11.859375 11.308594 11.878906 11.445312 C 11.914062 11.675781 11.875 11.914062 11.769531 12.125 C 11.621094 12.410156 11.324219 12.613281 11.003906 12.640625 C 10.957031 12.644531 10.902344 12.640625 10.867188 12.675781 C 10.835938 12.707031 10.839844 12.753906 10.84375 12.792969 C 10.855469 12.902344 10.890625 13.011719 10.964844 13.097656 C 11.046875 13.183594 11.175781 13.246094 11.300781 13.214844 C 11.441406 13.1875 11.5625 13.09375 11.664062 12.996094 C 11.761719 12.898438 11.84375 12.792969 11.921875 12.679688 C 12.03125 12.523438 12.097656 12.347656 12.160156 12.171875 C 12.226562 12.003906 12.285156 11.828125 12.390625 11.679688 C 12.472656 11.550781 12.582031 11.441406 12.714844 11.363281 C 12.859375 11.269531 13.035156 11.222656 13.207031 11.234375 C 13.261719 11.234375 13.320312 11.238281 13.367188 11.207031 C 13.40625 11.175781 13.421875 11.121094 13.421875 11.070312 C 13.421875 10.984375 13.429688 10.894531 13.4375 10.808594 C 13.449219 10.667969 13.460938 10.53125 13.480469 10.394531 C 13.519531 10.050781 13.589844 9.714844 13.679688 9.382812 C 13.726562 9.21875 13.789062 9.050781 13.894531 8.910156 C 13.9375 8.84375 13.992188 8.785156 14.0625 8.746094 C 14.128906 8.707031 14.21875 8.710938 14.289062 8.730469 C 14.382812 8.757812 14.445312 8.847656 14.480469 8.933594 C 14.550781 9.097656 14.53125 9.285156 14.515625 9.460938 C 14.5 9.734375 14.433594 10.007812 14.375 10.28125 C 14.328125 10.519531 14.289062 10.761719 14.242188 11 C 14.183594 11.328125 14.125 11.65625 14.0625 11.984375 C 14.011719 12.253906 13.953125 12.53125 13.984375 12.804688 C 13.996094 12.878906 14.003906 12.957031 14.054688 13.015625 C 14.089844 13.054688 14.148438 13.0625 14.195312 13.046875 C 14.257812 13.027344 14.300781 12.96875 14.335938 12.914062 C 14.410156 12.78125 14.480469 12.644531 14.546875 12.507812 C 14.644531 12.3125 14.746094 12.113281 14.777344 11.898438 C 14.828125 11.570312 14.863281 11.238281 14.910156 10.90625 C 14.949219 10.660156 14.992188 10.414062 15.03125 10.171875 C 15.078125 9.863281 15.136719 9.558594 15.222656 9.261719 C 15.265625 9.121094 15.320312 8.984375 15.417969 8.875 C 15.507812 8.785156 15.613281 8.722656 15.730469 8.710938 Z M 11.203125 11.433594 C 11.15625 11.445312 11.117188 11.484375 11.089844 11.523438 C 11.019531 11.609375 10.96875 11.707031 10.933594 11.8125 C 10.894531 11.925781 10.859375 12.042969 10.875 12.160156 C 10.878906 12.195312 10.914062 12.21875 10.945312 12.21875 C 11.007812 12.222656 11.066406 12.1875 11.113281 12.148438 C 11.222656 12.074219 11.292969 11.953125 11.34375 11.832031 C 11.375 11.753906 11.394531 11.667969 11.386719 11.585938 C 11.382812 11.527344 11.355469 11.46875 11.304688 11.441406 C 11.277344 11.421875 11.234375 11.421875 11.203125 11.433594 Z M 13.210938 11.695312 C 13.082031 11.71875 12.964844 11.796875 12.878906 11.898438 C 12.789062 12.007812 12.722656 12.144531 12.691406 12.285156 C 12.640625 12.484375 12.636719 12.695312 12.691406 12.894531 C 12.707031 12.953125 12.734375 13.015625 12.78125 13.058594 C 12.8125 13.089844 12.855469 13.105469 12.898438 13.109375 C 13.007812 13.125 13.109375 13.0625 13.195312 13 C 13.300781 12.921875 13.367188 12.808594 13.410156 12.6875 C 13.4375 12.613281 13.421875 12.53125 13.414062 12.453125 C 13.402344 12.296875 13.402344 12.140625 13.410156 11.984375 C 13.414062 11.929688 13.429688 11.878906 13.429688 11.824219 C 13.429688 11.78125 13.414062 11.734375 13.375 11.710938 C 13.324219 11.679688 13.265625 11.6875 13.210938 11.695312 Z M 16.34375 14.5 C 16.234375 14.503906 16.121094 14.527344 16.015625 14.574219 C 15.898438 14.621094 15.800781 14.707031 15.753906 14.820312 C 15.71875 14.890625 15.707031 14.972656 15.742188 15.042969 C 15.777344 15.117188 15.839844 15.171875 15.914062 15.203125 C 16.015625 15.25 16.128906 15.253906 16.234375 15.242188 C 16.566406 15.207031 16.882812 15.035156 17.09375 14.773438 C 17.136719 14.722656 17.167969 14.664062 17.203125 14.609375 C 17.210938 14.589844 17.226562 14.558594 17.207031 14.542969 C 17.179688 14.523438 17.148438 14.53125 17.117188 14.53125 C 17 14.523438 16.878906 14.511719 16.761719 14.507812 C 16.621094 14.5 16.484375 14.488281 16.34375 14.5 Z M 16.34375 14.5 "/>
</g>
</svg>
