<?xml version="1.0" encoding="UTF-8"?>
<svg xmlns="http://www.w3.org/2000/svg" xmlns:xlink="http://www.w3.org/1999/xlink" width="24px" height="24px" viewBox="0 0 24 24" version="1.1">
<defs>
<filter id="alpha" filterUnits="objectBoundingBox" x="0%" y="0%" width="100%" height="100%">
  <feColorMatrix type="matrix" in="SourceGraphic" values="0 0 0 0 1 0 0 0 0 1 0 0 0 0 1 0 0 0 1 0"/>
</filter>
<mask id="mask0">
  <g filter="url(#alpha)">
<rect x="0" y="0" width="24" height="24" style="fill:rgb(0%,0%,0%);fill-opacity:0.984314;stroke:none;"/>
  </g>
</mask>
<clipPath id="clip1">
  <rect x="0" y="0" width="24" height="24"/>
</clipPath>
<g id="surface5" clip-path="url(#clip1)">
<path style=" stroke:none;fill-rule:evenodd;fill:rgb(99.607843%,0%,20.392157%);fill-opacity:1;" d="M -0.03125 -0.03125 C 7.96875 -0.03125 15.96875 -0.03125 23.96875 -0.03125 C 23.96875 7.96875 23.96875 15.96875 23.96875 23.96875 C 15.96875 23.96875 7.96875 23.96875 -0.03125 23.96875 C -0.03125 23.828125 -0.03125 23.691406 -0.03125 23.550781 C 0.0742188 23.488281 0.117188 23.386719 0.0898438 23.25 C 0.160156 23.261719 0.21875 23.242188 0.269531 23.191406 C 0.390625 23.039062 0.519531 22.902344 0.660156 22.769531 C 0.695312 22.53125 0.8125 22.351562 1.019531 22.230469 C 1.039062 22.148438 1.058594 22.070312 1.078125 21.988281 C 1.121094 22.070312 1.160156 22.070312 1.199219 21.988281 C 1.230469 21.890625 1.238281 21.792969 1.230469 21.691406 C 1.289062 21.691406 1.351562 21.691406 1.410156 21.691406 C 1.636719 21.402344 1.816406 21.082031 1.949219 20.730469 C 2.011719 20.730469 2.070312 20.730469 2.128906 20.730469 C 2.121094 20.667969 2.132812 20.605469 2.160156 20.550781 C 2.410156 20.257812 2.652344 19.957031 2.878906 19.648438 C 2.910156 19.574219 2.917969 19.492188 2.910156 19.410156 C 2.96875 19.410156 3.03125 19.410156 3.089844 19.410156 C 3.089844 19.351562 3.089844 19.289062 3.089844 19.230469 C 3.148438 19.230469 3.210938 19.230469 3.269531 19.230469 C 3.269531 19.148438 3.269531 19.070312 3.269531 18.988281 C 3.328125 18.988281 3.390625 18.988281 3.449219 18.988281 C 3.445312 18.902344 3.464844 18.824219 3.511719 18.75 C 3.703125 18.589844 3.875 18.410156 4.019531 18.210938 C 4.089844 18.042969 4.160156 17.882812 4.230469 17.730469 C 4.289062 17.730469 4.351562 17.730469 4.410156 17.730469 C 4.410156 17.648438 4.410156 17.570312 4.410156 17.488281 C 4.46875 17.488281 4.53125 17.488281 4.589844 17.488281 C 4.734375 17.265625 4.855469 17.023438 4.949219 16.769531 C 5.011719 16.769531 5.070312 16.769531 5.128906 16.769531 C 5.125 16.683594 5.144531 16.605469 5.191406 16.53125 C 5.304688 16.414062 5.414062 16.296875 5.519531 16.171875 C 5.65625 15.925781 5.785156 15.6875 5.910156 15.449219 C 5.96875 15.449219 6.03125 15.449219 6.089844 15.449219 C 6.128906 15.28125 6.207031 15.132812 6.328125 15 C 6.308594 14.980469 6.289062 14.960938 6.269531 14.941406 C 6.328125 14.910156 6.386719 14.902344 6.449219 14.910156 C 6.441406 14.847656 6.449219 14.785156 6.480469 14.730469 C 6.96875 14.113281 7.460938 13.492188 7.949219 12.871094 C 8.023438 12.730469 8.082031 12.59375 8.128906 12.449219 C 8.191406 12.449219 8.25 12.449219 8.308594 12.449219 C 8.339844 12.257812 8.398438 12.078125 8.488281 11.910156 C 8.429688 11.910156 8.371094 11.910156 8.308594 11.910156 C 8.277344 11.785156 8.226562 11.664062 8.160156 11.550781 C 8.003906 11.378906 7.863281 11.199219 7.738281 11.011719 C 7.699219 10.929688 7.660156 10.929688 7.621094 11.011719 C 7.582031 10.953125 7.59375 10.902344 7.648438 10.859375 C 7.519531 10.757812 7.425781 10.628906 7.378906 10.46875 C 7.339844 10.390625 7.300781 10.390625 7.261719 10.46875 C 7.238281 10.390625 7.21875 10.308594 7.199219 10.230469 C 6.886719 9.859375 6.585938 9.480469 6.300781 9.089844 C 6.269531 9.03125 6.261719 8.972656 6.269531 8.910156 C 6.210938 8.910156 6.148438 8.910156 6.089844 8.910156 C 6.058594 8.71875 6 8.539062 5.910156 8.371094 C 5.851562 8.371094 5.789062 8.371094 5.730469 8.371094 C 5.730469 8.289062 5.730469 8.210938 5.730469 8.128906 C 5.671875 8.128906 5.609375 8.128906 5.550781 8.128906 C 5.558594 8 5.527344 7.878906 5.460938 7.769531 C 5.441406 7.789062 5.421875 7.808594 5.398438 7.828125 C 5.222656 7.496094 5.023438 7.175781 4.800781 6.871094 C 4.738281 6.820312 4.667969 6.800781 4.589844 6.808594 C 4.589844 6.710938 4.589844 6.609375 4.589844 6.511719 C 4.53125 6.511719 4.46875 6.511719 4.410156 6.511719 C 4.410156 6.429688 4.410156 6.351562 4.410156 6.269531 C 4.351562 6.269531 4.289062 6.269531 4.230469 6.269531 C 4.160156 6.117188 4.089844 5.957031 4.019531 5.789062 C 3.78125 5.511719 3.539062 5.230469 3.300781 4.949219 C 3.269531 4.894531 3.261719 4.832031 3.269531 4.769531 C 3.210938 4.769531 3.148438 4.769531 3.089844 4.769531 C 2.980469 4.523438 2.859375 4.28125 2.730469 4.050781 C 2.671875 4.050781 2.609375 4.050781 2.550781 4.050781 C 2.558594 3.96875 2.550781 3.886719 2.519531 3.808594 C 2.378906 3.730469 2.300781 3.613281 2.28125 3.449219 C 2.226562 3.519531 2.175781 3.507812 2.128906 3.421875 C 2.148438 3.398438 2.171875 3.378906 2.191406 3.359375 C 2.058594 3.210938 1.929688 3.058594 1.800781 2.910156 C 1.769531 2.851562 1.761719 2.792969 1.769531 2.730469 C 1.710938 2.730469 1.648438 2.730469 1.589844 2.730469 C 1.589844 2.648438 1.589844 2.570312 1.589844 2.488281 C 1.53125 2.488281 1.46875 2.488281 1.410156 2.488281 C 1.417969 2.386719 1.410156 2.289062 1.378906 2.191406 C 1.277344 2.140625 1.226562 2.0625 1.230469 1.949219 C 1.171875 1.949219 1.109375 1.949219 1.050781 1.949219 C 1.015625 1.757812 0.945312 1.578125 0.839844 1.410156 C 0.730469 1.308594 0.621094 1.210938 0.511719 1.109375 C 0.40625 0.839844 0.253906 0.597656 0.0585938 0.390625 C 0.0351562 0.421875 0.0078125 0.441406 -0.03125 0.449219 C -0.03125 0.289062 -0.03125 0.128906 -0.03125 -0.03125 Z M -0.03125 -0.03125 "/>
</g>
<mask id="mask1">
  <g filter="url(#alpha)">
<rect x="0" y="0" width="24" height="24" style="fill:rgb(0%,0%,0%);fill-opacity:0.996078;stroke:none;"/>
  </g>
</mask>
<clipPath id="clip2">
  <rect x="0" y="0" width="24" height="24"/>
</clipPath>
<g id="surface8" clip-path="url(#clip2)">
<path style=" stroke:none;fill-rule:evenodd;fill:rgb(99.607843%,63.137257%,70.588237%);fill-opacity:1;" d="M 12.570312 8.488281 C 15.039062 8.429688 17.519531 8.410156 20.011719 8.429688 C 20.050781 8.429688 20.070312 8.449219 20.070312 8.488281 C 20.089844 10.921875 20.070312 13.339844 20.011719 15.75 C 20.011719 15.730469 20.011719 15.710938 20.011719 15.691406 C 20.011719 13.289062 20.011719 10.890625 20.011719 8.488281 C 17.550781 8.488281 15.089844 8.488281 12.628906 8.488281 C 12.609375 8.488281 12.589844 8.488281 12.570312 8.488281 Z M 12.570312 8.488281 "/>
</g>
<mask id="mask2">
  <g filter="url(#alpha)">
<rect x="0" y="0" width="24" height="24" style="fill:rgb(0%,0%,0%);fill-opacity:0.996078;stroke:none;"/>
  </g>
</mask>
<clipPath id="clip3">
  <rect x="0" y="0" width="24" height="24"/>
</clipPath>
<g id="surface11" clip-path="url(#clip3)">
<path style=" stroke:none;fill-rule:evenodd;fill:rgb(99.607843%,65.098041%,72.156864%);fill-opacity:1;" d="M 15.210938 9.570312 C 16.453125 9.488281 17.703125 9.488281 18.960938 9.570312 C 18.988281 11.25 19 12.929688 18.988281 14.609375 C 18.96875 14.609375 18.949219 14.609375 18.929688 14.609375 C 18.949219 12.941406 18.929688 11.28125 18.871094 9.628906 C 17.660156 9.570312 16.441406 9.550781 15.210938 9.570312 Z M 15.210938 9.570312 "/>
</g>
<mask id="mask3">
  <g filter="url(#alpha)">
<rect x="0" y="0" width="24" height="24" style="fill:rgb(0%,0%,0%);fill-opacity:0.996078;stroke:none;"/>
  </g>
</mask>
<clipPath id="clip4">
  <rect x="0" y="0" width="24" height="24"/>
</clipPath>
<g id="surface14" clip-path="url(#clip4)">
<path style=" stroke:none;fill-rule:evenodd;fill:rgb(99.607843%,31.37255%,43.921569%);fill-opacity:1;" d="M 14.011719 9.808594 C 14.089844 9.851562 14.148438 9.910156 14.191406 9.988281 C 14.070312 9.988281 14.011719 9.929688 14.011719 9.808594 Z M 14.011719 9.808594 "/>
</g>
<mask id="mask4">
  <g filter="url(#alpha)">
<rect x="0" y="0" width="24" height="24" style="fill:rgb(0%,0%,0%);fill-opacity:0.996078;stroke:none;"/>
  </g>
</mask>
<clipPath id="clip5">
  <rect x="0" y="0" width="24" height="24"/>
</clipPath>
<g id="surface17" clip-path="url(#clip5)">
<path style=" stroke:none;fill-rule:evenodd;fill:rgb(100%,30.980393%,43.921569%);fill-opacity:1;" d="M 14.371094 10.171875 C 14.449219 10.210938 14.511719 10.269531 14.550781 10.351562 C 14.429688 10.351562 14.371094 10.289062 14.371094 10.171875 Z M 14.371094 10.171875 "/>
</g>
<mask id="mask5">
  <g filter="url(#alpha)">
<rect x="0" y="0" width="24" height="24" style="fill:rgb(0%,0%,0%);fill-opacity:0.996078;stroke:none;"/>
  </g>
</mask>
<clipPath id="clip6">
  <rect x="0" y="0" width="24" height="24"/>
</clipPath>
<g id="surface20" clip-path="url(#clip6)">
<path style=" stroke:none;fill-rule:evenodd;fill:rgb(100%,41.960785%,50.588238%);fill-opacity:1;" d="M 15.75 10.289062 C 15.789062 10.289062 15.828125 10.289062 15.871094 10.289062 C 15.988281 10.320312 16.046875 10.402344 16.050781 10.53125 C 15.957031 10.511719 15.917969 10.449219 15.929688 10.351562 C 15.851562 10.363281 15.792969 10.34375 15.75 10.289062 Z M 15.75 10.289062 "/>
</g>
<mask id="mask6">
  <g filter="url(#alpha)">
<rect x="0" y="0" width="24" height="24" style="fill:rgb(0%,0%,0%);fill-opacity:0.996078;stroke:none;"/>
  </g>
</mask>
<clipPath id="clip7">
  <rect x="0" y="0" width="24" height="24"/>
</clipPath>
<g id="surface23" clip-path="url(#clip7)">
<path style=" stroke:none;fill-rule:evenodd;fill:rgb(100%,69.01961%,75.294119%);fill-opacity:1;" d="M 16.410156 10.890625 C 16.488281 10.929688 16.550781 10.988281 16.589844 11.070312 C 16.46875 11.070312 16.410156 11.011719 16.410156 10.890625 Z M 16.410156 10.890625 "/>
</g>
<mask id="mask7">
  <g filter="url(#alpha)">
<rect x="0" y="0" width="24" height="24" style="fill:rgb(0%,0%,0%);fill-opacity:0.996078;stroke:none;"/>
  </g>
</mask>
<clipPath id="clip8">
  <rect x="0" y="0" width="24" height="24"/>
</clipPath>
<g id="surface26" clip-path="url(#clip8)">
<path style=" stroke:none;fill-rule:evenodd;fill:rgb(100%,44.313726%,54.901963%);fill-opacity:1;" d="M 16.890625 11.371094 C 17.011719 11.371094 17.070312 11.429688 17.070312 11.550781 C 16.988281 11.511719 16.929688 11.449219 16.890625 11.371094 Z M 16.890625 11.371094 "/>
</g>
<mask id="mask8">
  <g filter="url(#alpha)">
<rect x="0" y="0" width="24" height="24" style="fill:rgb(0%,0%,0%);fill-opacity:0.996078;stroke:none;"/>
  </g>
</mask>
<clipPath id="clip9">
  <rect x="0" y="0" width="24" height="24"/>
</clipPath>
<g id="surface29" clip-path="url(#clip9)">
<path style=" stroke:none;fill-rule:evenodd;fill:rgb(100%,78.431374%,82.352942%);fill-opacity:1;" d="M 15.808594 11.550781 C 15.929688 11.550781 15.988281 11.609375 15.988281 11.730469 C 15.910156 11.691406 15.851562 11.628906 15.808594 11.550781 Z M 15.808594 11.550781 "/>
</g>
<mask id="mask9">
  <g filter="url(#alpha)">
<rect x="0" y="0" width="24" height="24" style="fill:rgb(0%,0%,0%);fill-opacity:0.996078;stroke:none;"/>
  </g>
</mask>
<clipPath id="clip10">
  <rect x="0" y="0" width="24" height="24"/>
</clipPath>
<g id="surface32" clip-path="url(#clip10)">
<path style=" stroke:none;fill-rule:evenodd;fill:rgb(100%,32.549021%,44.313726%);fill-opacity:1;" d="M 17.070312 12.449219 C 17.089844 12.449219 17.109375 12.449219 17.128906 12.449219 C 17.128906 12.570312 17.070312 12.628906 16.949219 12.628906 C 16.949219 12.609375 16.949219 12.589844 16.949219 12.570312 C 16.96875 12.511719 17.011719 12.46875 17.070312 12.449219 Z M 17.070312 12.449219 "/>
</g>
<mask id="mask10">
  <g filter="url(#alpha)">
<rect x="0" y="0" width="24" height="24" style="fill:rgb(0%,0%,0%);fill-opacity:0.996078;stroke:none;"/>
  </g>
</mask>
<clipPath id="clip11">
  <rect x="0" y="0" width="24" height="24"/>
</clipPath>
<g id="surface35" clip-path="url(#clip11)">
<path style=" stroke:none;fill-rule:evenodd;fill:rgb(100%,59.607846%,67.450982%);fill-opacity:1;" d="M 15.75 13.769531 C 15.707031 13.863281 15.648438 13.941406 15.570312 14.011719 C 15.550781 14.011719 15.53125 14.011719 15.511719 14.011719 C 15.535156 13.878906 15.613281 13.796875 15.75 13.769531 Z M 15.75 13.769531 "/>
</g>
</defs>
<g id="surface1">
<use xlink:href="#surface5" mask="url(#mask0)"/>
<path style=" stroke:none;fill-rule:evenodd;fill:rgb(99.607843%,29.803923%,43.921569%);fill-opacity:1;" d="M 20.011719 8.429688 C 17.519531 8.410156 15.039062 8.429688 12.570312 8.488281 C 12.570312 10.890625 12.570312 13.289062 12.570312 15.691406 C 12.511719 13.28125 12.488281 10.859375 12.511719 8.429688 C 15.011719 8.351562 17.511719 8.351562 20.011719 8.429688 Z M 20.011719 8.429688 "/>
<use xlink:href="#surface8" mask="url(#mask1)"/>
<path style=" stroke:none;fill-rule:evenodd;fill:rgb(99.607843%,0%,16.470589%);fill-opacity:1;" d="M 20.191406 8.429688 C 20.269531 9.628906 20.308594 10.847656 20.308594 12.089844 C 20.289062 13.308594 20.269531 14.53125 20.25 15.75 C 20.191406 13.308594 20.171875 10.871094 20.191406 8.429688 Z M 20.191406 8.429688 "/>
<path style=" stroke:none;fill-rule:evenodd;fill:rgb(99.607843%,0%,15.686275%);fill-opacity:1;" d="M 12.449219 8.429688 C 12.449219 10.871094 12.449219 13.308594 12.449219 15.75 C 12.445312 15.78125 12.425781 15.800781 12.390625 15.808594 C 12.371094 14.578125 12.351562 13.351562 12.328125 12.121094 C 12.328125 10.871094 12.371094 9.640625 12.449219 8.429688 Z M 12.449219 8.429688 "/>
<path style=" stroke:none;fill-rule:evenodd;fill:rgb(99.607843%,4.313726%,23.921569%);fill-opacity:1;" d="M 12.449219 8.429688 C 12.46875 8.429688 12.488281 8.429688 12.511719 8.429688 C 12.488281 10.859375 12.511719 13.28125 12.570312 15.691406 C 12.570312 15.730469 12.589844 15.75 12.628906 15.75 C 12.628906 15.769531 12.628906 15.789062 12.628906 15.808594 C 12.5625 15.804688 12.503906 15.785156 12.449219 15.75 C 12.449219 13.308594 12.449219 10.871094 12.449219 8.429688 Z M 12.449219 8.429688 "/>
<path style=" stroke:none;fill-rule:evenodd;fill:rgb(99.607843%,99.215686%,99.215686%);fill-opacity:1;" d="M 12.628906 8.488281 C 15.089844 8.488281 17.550781 8.488281 20.011719 8.488281 C 20.011719 10.890625 20.011719 13.289062 20.011719 15.691406 C 17.550781 15.691406 15.089844 15.691406 12.628906 15.691406 C 12.628906 13.289062 12.628906 10.890625 12.628906 8.488281 Z M 12.628906 8.488281 "/>
<path style=" stroke:none;fill-rule:evenodd;fill:rgb(99.607843%,27.843139%,42.745098%);fill-opacity:1;" d="M 20.070312 8.488281 C 20.128906 10.917969 20.148438 13.359375 20.128906 15.808594 C 17.628906 15.808594 15.128906 15.808594 12.628906 15.808594 C 12.628906 15.789062 12.628906 15.769531 12.628906 15.75 C 15.089844 15.75 17.550781 15.75 20.011719 15.75 C 20.070312 13.339844 20.089844 10.921875 20.070312 8.488281 Z M 20.070312 8.488281 "/>
<path style=" stroke:none;fill-rule:evenodd;fill:rgb(100%,32.549021%,46.666667%);fill-opacity:1;" d="M 15.210938 9.570312 C 16.441406 9.550781 17.660156 9.570312 18.871094 9.628906 C 18.769531 9.628906 18.671875 9.628906 18.570312 9.628906 C 17.46875 9.621094 16.371094 9.628906 15.269531 9.660156 C 15.304688 9.683594 15.324219 9.714844 15.328125 9.75 C 15.238281 9.730469 15.195312 9.671875 15.210938 9.570312 Z M 15.210938 9.570312 "/>
<path style=" stroke:none;fill-rule:evenodd;fill:rgb(100%,9.803922%,27.058825%);fill-opacity:1;" d="M 18.570312 9.628906 C 18.570312 9.648438 18.570312 9.671875 18.570312 9.691406 C 17.53125 9.691406 16.488281 9.691406 15.449219 9.691406 C 15.445312 9.777344 15.464844 9.859375 15.511719 9.929688 C 15.433594 9.914062 15.375 9.875 15.328125 9.808594 C 15.328125 9.789062 15.328125 9.769531 15.328125 9.75 C 15.324219 9.714844 15.304688 9.683594 15.269531 9.660156 C 16.371094 9.628906 17.46875 9.621094 18.570312 9.628906 Z M 18.570312 9.628906 "/>
<path style=" stroke:none;fill-rule:evenodd;fill:rgb(99.607843%,1.176471%,20.784314%);fill-opacity:1;" d="M 18.570312 9.691406 C 18.683594 11.28125 18.753906 12.878906 18.78125 14.488281 C 18.789062 13.839844 18.820312 13.199219 18.871094 12.570312 C 18.871094 13.230469 18.871094 13.890625 18.871094 14.550781 C 17.230469 14.550781 15.589844 14.550781 13.949219 14.550781 C 13.929688 14.550781 13.910156 14.550781 13.890625 14.550781 C 13.871094 12.96875 13.890625 11.386719 13.949219 9.808594 C 13.96875 9.808594 13.988281 9.808594 14.011719 9.808594 C 14.011719 9.929688 14.070312 9.988281 14.191406 9.988281 C 14.191406 10.109375 14.25 10.171875 14.371094 10.171875 C 14.371094 10.289062 14.429688 10.351562 14.550781 10.351562 C 14.550781 10.46875 14.609375 10.53125 14.730469 10.53125 C 14.730469 10.609375 14.730469 10.691406 14.730469 10.769531 C 14.859375 10.78125 14.980469 10.820312 15.089844 10.890625 C 15.25 11.03125 15.410156 11.171875 15.570312 11.308594 C 15.585938 11.386719 15.625 11.445312 15.691406 11.488281 C 15.671875 11.59375 15.660156 11.695312 15.660156 11.789062 C 15.898438 11.722656 15.925781 11.78125 15.75 11.96875 C 15.769531 11.988281 15.789062 12.011719 15.808594 12.03125 C 15.871094 11.949219 15.953125 11.910156 16.050781 11.910156 C 16.050781 11.988281 16.050781 12.070312 16.050781 12.148438 C 15.96875 12.148438 15.929688 12.191406 15.929688 12.269531 C 15.828125 12.292969 15.769531 12.351562 15.75 12.449219 C 15.628906 12.53125 15.53125 12.628906 15.449219 12.75 C 15.351562 12.769531 15.292969 12.828125 15.269531 12.929688 C 15.191406 12.929688 15.148438 12.96875 15.148438 13.050781 C 15.148438 13.089844 15.128906 13.109375 15.089844 13.109375 C 15.011719 13.109375 14.96875 13.148438 14.96875 13.230469 C 14.867188 13.273438 14.804688 13.355469 14.789062 13.46875 C 14.550781 13.550781 14.550781 13.628906 14.789062 13.710938 C 14.800781 13.855469 14.882812 13.914062 15.03125 13.890625 C 15.042969 14.019531 15.101562 14.121094 15.210938 14.191406 C 15.371094 14.253906 15.492188 14.195312 15.570312 14.011719 C 15.648438 13.941406 15.707031 13.863281 15.75 13.769531 C 15.851562 13.75 15.910156 13.6875 15.929688 13.589844 C 16.210938 13.429688 16.429688 13.210938 16.589844 12.929688 C 16.6875 12.910156 16.75 12.851562 16.769531 12.75 C 16.847656 12.734375 16.90625 12.691406 16.949219 12.628906 C 17.070312 12.628906 17.128906 12.570312 17.128906 12.449219 C 17.191406 12.40625 17.234375 12.347656 17.25 12.269531 C 17.269531 12.269531 17.289062 12.269531 17.308594 12.269531 C 17.371094 12.273438 17.417969 12.253906 17.460938 12.210938 C 17.507812 12.078125 17.496094 11.957031 17.429688 11.851562 C 17.410156 11.800781 17.371094 11.78125 17.308594 11.789062 C 17.289062 11.648438 17.210938 11.570312 17.070312 11.550781 C 17.070312 11.429688 17.011719 11.371094 16.890625 11.371094 C 16.828125 11.308594 16.769531 11.25 16.710938 11.191406 C 16.710938 11.109375 16.671875 11.070312 16.589844 11.070312 C 16.550781 10.988281 16.488281 10.929688 16.410156 10.890625 C 16.371094 10.808594 16.308594 10.75 16.230469 10.710938 C 16.191406 10.628906 16.128906 10.570312 16.050781 10.53125 C 16.046875 10.402344 15.988281 10.320312 15.871094 10.289062 C 15.847656 10.1875 15.789062 10.128906 15.691406 10.109375 C 15.667969 10.007812 15.609375 9.949219 15.511719 9.929688 C 15.464844 9.859375 15.445312 9.777344 15.449219 9.691406 C 16.488281 9.691406 17.53125 9.691406 18.570312 9.691406 Z M 18.570312 9.691406 "/>
<path style=" stroke:none;fill-rule:evenodd;fill:rgb(100%,72.156864%,77.64706%);fill-opacity:1;" d="M 15.210938 9.570312 C 15.195312 9.671875 15.238281 9.730469 15.328125 9.75 C 15.328125 9.769531 15.328125 9.789062 15.328125 9.808594 C 15.269531 9.808594 15.210938 9.808594 15.148438 9.808594 C 15.132812 9.714844 15.152344 9.632812 15.210938 9.570312 Z M 15.210938 9.570312 "/>
<path style=" stroke:none;fill-rule:evenodd;fill:rgb(100%,54.901963%,64.313728%);fill-opacity:1;" d="M 13.890625 9.628906 C 13.851562 9.613281 13.8125 9.589844 13.769531 9.570312 C 13.710938 11.25 13.691406 12.929688 13.710938 14.609375 C 13.691406 14.609375 13.671875 14.609375 13.648438 14.609375 C 13.648438 12.910156 13.648438 11.210938 13.648438 9.511719 C 13.769531 9.488281 13.847656 9.53125 13.890625 9.628906 Z M 13.890625 9.628906 "/>
<path style=" stroke:none;fill-rule:evenodd;fill:rgb(100%,18.82353%,35.294119%);fill-opacity:1;" d="M 13.890625 9.628906 C 13.929688 9.691406 13.96875 9.75 14.011719 9.808594 C 13.988281 9.808594 13.96875 9.808594 13.949219 9.808594 C 13.890625 9.78125 13.84375 9.742188 13.800781 9.691406 C 13.789062 10.5 13.78125 11.308594 13.769531 12.121094 C 13.769531 12.949219 13.808594 13.761719 13.890625 14.550781 C 13.910156 14.550781 13.929688 14.550781 13.949219 14.550781 C 13.949219 14.570312 13.949219 14.589844 13.949219 14.609375 C 13.871094 14.609375 13.789062 14.609375 13.710938 14.609375 C 13.691406 12.929688 13.710938 11.25 13.769531 9.570312 C 13.8125 9.589844 13.851562 9.613281 13.890625 9.628906 Z M 13.890625 9.628906 "/>
<use xlink:href="#surface11" mask="url(#mask2)"/>
<use xlink:href="#surface14" mask="url(#mask3)"/>
<path style=" stroke:none;fill-rule:evenodd;fill:rgb(100%,30.980393%,43.921569%);fill-opacity:1;" d="M 14.191406 9.988281 C 14.269531 10.03125 14.328125 10.089844 14.371094 10.171875 C 14.25 10.171875 14.191406 10.109375 14.191406 9.988281 Z M 14.191406 9.988281 "/>
<path style=" stroke:none;fill-rule:evenodd;fill:rgb(100%,28.235295%,40.784314%);fill-opacity:1;" d="M 15.511719 9.929688 C 15.609375 9.949219 15.667969 10.007812 15.691406 10.109375 C 15.589844 10.089844 15.53125 10.03125 15.511719 9.929688 Z M 15.511719 9.929688 "/>
<path style=" stroke:none;fill-rule:evenodd;fill:rgb(100%,27.058825%,40.000001%);fill-opacity:1;" d="M 15.691406 10.109375 C 15.789062 10.128906 15.847656 10.1875 15.871094 10.289062 C 15.828125 10.289062 15.789062 10.289062 15.75 10.289062 C 15.746094 10.222656 15.726562 10.164062 15.691406 10.109375 Z M 15.691406 10.109375 "/>
<path style=" stroke:none;fill-rule:evenodd;fill:rgb(99.607843%,0%,14.901961%);fill-opacity:1;" d="M 13.949219 9.808594 C 13.890625 11.386719 13.871094 12.96875 13.890625 14.550781 C 13.808594 13.761719 13.769531 12.949219 13.769531 12.121094 C 13.78125 11.308594 13.789062 10.5 13.800781 9.691406 C 13.84375 9.742188 13.890625 9.78125 13.949219 9.808594 Z M 13.949219 9.808594 "/>
<use xlink:href="#surface17" mask="url(#mask4)"/>
<use xlink:href="#surface20" mask="url(#mask5)"/>
<path style=" stroke:none;fill-rule:evenodd;fill:rgb(100%,30.980393%,43.529412%);fill-opacity:1;" d="M 14.550781 10.351562 C 14.628906 10.390625 14.691406 10.449219 14.730469 10.53125 C 14.609375 10.53125 14.550781 10.46875 14.550781 10.351562 Z M 14.550781 10.351562 "/>
<path style=" stroke:none;fill-rule:evenodd;fill:rgb(100%,67.058825%,73.725492%);fill-opacity:1;" d="M 16.050781 10.53125 C 16.128906 10.570312 16.191406 10.628906 16.230469 10.710938 C 16.109375 10.710938 16.050781 10.648438 16.050781 10.53125 Z M 16.050781 10.53125 "/>
<path style=" stroke:none;fill-rule:evenodd;fill:rgb(100%,22.352941%,34.509805%);fill-opacity:1;" d="M 14.730469 10.53125 C 14.871094 10.628906 14.988281 10.75 15.089844 10.890625 C 14.980469 10.820312 14.859375 10.78125 14.730469 10.769531 C 14.730469 10.691406 14.730469 10.609375 14.730469 10.53125 Z M 14.730469 10.53125 "/>
<path style=" stroke:none;fill-rule:evenodd;fill:rgb(100%,67.450982%,73.725492%);fill-opacity:1;" d="M 16.230469 10.710938 C 16.308594 10.75 16.371094 10.808594 16.410156 10.890625 C 16.289062 10.890625 16.230469 10.828125 16.230469 10.710938 Z M 16.230469 10.710938 "/>
<use xlink:href="#surface23" mask="url(#mask6)"/>
<path style=" stroke:none;fill-rule:evenodd;fill:rgb(100%,48.235294%,58.431375%);fill-opacity:1;" d="M 16.589844 11.070312 C 16.671875 11.070312 16.710938 11.109375 16.710938 11.191406 C 16.648438 11.171875 16.609375 11.128906 16.589844 11.070312 Z M 16.589844 11.070312 "/>
<path style=" stroke:none;fill-rule:evenodd;fill:rgb(100%,73.725492%,78.823531%);fill-opacity:1;" d="M 15.570312 11.308594 C 15.707031 11.335938 15.785156 11.417969 15.808594 11.550781 C 15.769531 11.53125 15.730469 11.511719 15.691406 11.488281 C 15.625 11.445312 15.585938 11.386719 15.570312 11.308594 Z M 15.570312 11.308594 "/>
<use xlink:href="#surface26" mask="url(#mask7)"/>
<use xlink:href="#surface29" mask="url(#mask8)"/>
<path style=" stroke:none;fill-rule:evenodd;fill:rgb(100%,44.705883%,54.901963%);fill-opacity:1;" d="M 17.070312 11.550781 C 17.210938 11.570312 17.289062 11.648438 17.308594 11.789062 C 17.210938 11.730469 17.128906 11.648438 17.070312 11.550781 Z M 17.070312 11.550781 "/>
<path style=" stroke:none;fill-rule:evenodd;fill:rgb(100%,19.215687%,32.549021%);fill-opacity:1;" d="M 15.691406 11.488281 C 15.730469 11.511719 15.769531 11.53125 15.808594 11.550781 C 15.851562 11.628906 15.910156 11.691406 15.988281 11.730469 C 15.988281 11.769531 16.011719 11.789062 16.050781 11.789062 C 16.125 11.917969 16.125 12.035156 16.050781 12.148438 C 16.050781 12.070312 16.050781 11.988281 16.050781 11.910156 C 15.953125 11.910156 15.871094 11.949219 15.808594 12.03125 C 15.789062 12.011719 15.769531 11.988281 15.75 11.96875 C 15.925781 11.78125 15.898438 11.722656 15.660156 11.789062 C 15.660156 11.695312 15.671875 11.59375 15.691406 11.488281 Z M 15.691406 11.488281 "/>
<path style=" stroke:none;fill-rule:evenodd;fill:rgb(100%,63.529414%,70.980394%);fill-opacity:1;" d="M 16.050781 11.789062 C 16.125 11.828125 16.164062 11.898438 16.171875 12 C 16.164062 12.101562 16.125 12.171875 16.050781 12.210938 C 16.050781 12.191406 16.050781 12.171875 16.050781 12.148438 C 16.125 12.035156 16.125 11.917969 16.050781 11.789062 Z M 16.050781 11.789062 "/>
<path style=" stroke:none;fill-rule:evenodd;fill:rgb(100%,71.372551%,76.862746%);fill-opacity:1;" d="M 17.308594 11.789062 C 17.371094 11.78125 17.410156 11.800781 17.429688 11.851562 C 17.445312 11.964844 17.425781 12.066406 17.371094 12.148438 C 17.378906 12.023438 17.359375 11.902344 17.308594 11.789062 Z M 17.308594 11.789062 "/>
<path style=" stroke:none;fill-rule:evenodd;fill:rgb(100%,38.431373%,50.196081%);fill-opacity:1;" d="M 16.050781 12.148438 C 16.050781 12.171875 16.050781 12.191406 16.050781 12.210938 C 16.011719 12.230469 15.96875 12.25 15.929688 12.269531 C 15.929688 12.191406 15.96875 12.148438 16.050781 12.148438 Z M 16.050781 12.148438 "/>
<path style=" stroke:none;fill-rule:evenodd;fill:rgb(100%,63.921571%,71.372551%);fill-opacity:1;" d="M 17.371094 12.148438 C 17.351562 12.191406 17.328125 12.230469 17.308594 12.269531 C 17.289062 12.269531 17.269531 12.269531 17.25 12.269531 C 17.25 12.191406 17.289062 12.148438 17.371094 12.148438 Z M 17.371094 12.148438 "/>
<path style=" stroke:none;fill-rule:evenodd;fill:rgb(100%,31.37255%,43.921569%);fill-opacity:1;" d="M 17.429688 11.851562 C 17.496094 11.957031 17.507812 12.078125 17.460938 12.210938 C 17.417969 12.253906 17.371094 12.273438 17.308594 12.269531 C 17.328125 12.230469 17.351562 12.191406 17.371094 12.148438 C 17.425781 12.066406 17.445312 11.964844 17.429688 11.851562 Z M 17.429688 11.851562 "/>
<path style=" stroke:none;fill-rule:evenodd;fill:rgb(100%,47.843137%,57.647061%);fill-opacity:1;" d="M 15.929688 12.269531 C 15.910156 12.367188 15.851562 12.429688 15.75 12.449219 C 15.769531 12.351562 15.828125 12.292969 15.929688 12.269531 Z M 15.929688 12.269531 "/>
<path style=" stroke:none;fill-rule:evenodd;fill:rgb(100%,55.29412%,63.529414%);fill-opacity:1;" d="M 17.25 12.269531 C 17.234375 12.347656 17.191406 12.40625 17.128906 12.449219 C 17.109375 12.449219 17.089844 12.449219 17.070312 12.449219 C 17.089844 12.351562 17.148438 12.292969 17.25 12.269531 Z M 17.25 12.269531 "/>
<use xlink:href="#surface32" mask="url(#mask9)"/>
<path style=" stroke:none;fill-rule:evenodd;fill:rgb(100%,58.823532%,66.666669%);fill-opacity:1;" d="M 15.75 12.449219 C 15.710938 12.609375 15.609375 12.710938 15.449219 12.75 C 15.53125 12.628906 15.628906 12.53125 15.75 12.449219 Z M 15.75 12.449219 "/>
<path style=" stroke:none;fill-rule:evenodd;fill:rgb(99.607843%,0%,16.862746%);fill-opacity:1;" d="M 18.570312 9.628906 C 18.671875 9.628906 18.769531 9.628906 18.871094 9.628906 C 18.871094 10.609375 18.871094 11.589844 18.871094 12.570312 C 18.820312 13.199219 18.789062 13.839844 18.78125 14.488281 C 18.753906 12.878906 18.683594 11.28125 18.570312 9.691406 C 18.570312 9.671875 18.570312 9.648438 18.570312 9.628906 Z M 18.570312 9.628906 "/>
<path style=" stroke:none;fill-rule:evenodd;fill:rgb(100%,54.11765%,63.137257%);fill-opacity:1;" d="M 16.949219 12.570312 C 16.949219 12.589844 16.949219 12.609375 16.949219 12.628906 C 16.90625 12.691406 16.847656 12.734375 16.769531 12.75 C 16.792969 12.648438 16.851562 12.589844 16.949219 12.570312 Z M 16.949219 12.570312 "/>
<path style=" stroke:none;fill-rule:evenodd;fill:rgb(100%,47.843137%,57.647061%);fill-opacity:1;" d="M 15.449219 12.75 C 15.429688 12.851562 15.367188 12.910156 15.269531 12.929688 C 15.292969 12.828125 15.351562 12.769531 15.449219 12.75 Z M 15.449219 12.75 "/>
<path style=" stroke:none;fill-rule:evenodd;fill:rgb(100%,53.333336%,61.960787%);fill-opacity:1;" d="M 16.769531 12.75 C 16.75 12.851562 16.6875 12.910156 16.589844 12.929688 C 16.613281 12.828125 16.671875 12.769531 16.769531 12.75 Z M 16.769531 12.75 "/>
<path style=" stroke:none;fill-rule:evenodd;fill:rgb(100%,38.039216%,50.196081%);fill-opacity:1;" d="M 15.269531 12.929688 C 15.25 12.988281 15.210938 13.03125 15.148438 13.050781 C 15.148438 12.96875 15.191406 12.929688 15.269531 12.929688 Z M 15.269531 12.929688 "/>
<path style=" stroke:none;fill-rule:evenodd;fill:rgb(100%,50.196081%,59.215689%);fill-opacity:1;" d="M 16.589844 12.929688 C 16.429688 13.210938 16.210938 13.429688 15.929688 13.589844 C 16.128906 13.351562 16.351562 13.128906 16.589844 12.929688 Z M 16.589844 12.929688 "/>
<path style=" stroke:none;fill-rule:evenodd;fill:rgb(100%,39.215687%,50.980395%);fill-opacity:1;" d="M 15.089844 13.109375 C 15.070312 13.148438 15.050781 13.191406 15.03125 13.230469 C 15.011719 13.230469 14.988281 13.230469 14.96875 13.230469 C 14.96875 13.148438 15.011719 13.109375 15.089844 13.109375 Z M 15.089844 13.109375 "/>
<path style=" stroke:none;fill-rule:evenodd;fill:rgb(100%,65.098041%,71.764708%);fill-opacity:1;" d="M 14.96875 13.230469 C 14.988281 13.230469 15.011719 13.230469 15.03125 13.230469 C 14.980469 13.335938 14.902344 13.414062 14.789062 13.46875 C 14.804688 13.355469 14.867188 13.273438 14.96875 13.230469 Z M 14.96875 13.230469 "/>
<path style=" stroke:none;fill-rule:evenodd;fill:rgb(100%,71.372551%,76.862746%);fill-opacity:1;" d="M 14.789062 13.46875 C 14.710938 13.550781 14.710938 13.628906 14.789062 13.710938 C 14.550781 13.628906 14.550781 13.550781 14.789062 13.46875 Z M 14.789062 13.46875 "/>
<path style=" stroke:none;fill-rule:evenodd;fill:rgb(100%,51.372552%,60.392159%);fill-opacity:1;" d="M 15.929688 13.589844 C 15.910156 13.6875 15.851562 13.75 15.75 13.769531 C 15.769531 13.671875 15.828125 13.613281 15.929688 13.589844 Z M 15.929688 13.589844 "/>
<use xlink:href="#surface35" mask="url(#mask10)"/>
<path style=" stroke:none;fill-rule:evenodd;fill:rgb(100%,48.235294%,57.647061%);fill-opacity:1;" d="M 15.511719 14.011719 C 15.53125 14.011719 15.550781 14.011719 15.570312 14.011719 C 15.492188 14.195312 15.371094 14.253906 15.210938 14.191406 C 15.324219 14.15625 15.425781 14.09375 15.511719 14.011719 Z M 15.511719 14.011719 "/>
<path style=" stroke:none;fill-rule:evenodd;fill:rgb(99.607843%,29.803923%,44.313726%);fill-opacity:1;" d="M 18.871094 9.628906 C 18.929688 11.28125 18.949219 12.941406 18.929688 14.609375 C 17.269531 14.609375 15.609375 14.609375 13.949219 14.609375 C 13.949219 14.589844 13.949219 14.570312 13.949219 14.550781 C 15.589844 14.550781 17.230469 14.550781 18.871094 14.550781 C 18.871094 13.890625 18.871094 13.230469 18.871094 12.570312 C 18.871094 11.589844 18.871094 10.609375 18.871094 9.628906 Z M 18.871094 9.628906 "/>
<path style=" stroke:none;fill-rule:evenodd;fill:rgb(100%,83.529413%,86.274511%);fill-opacity:1;" d="M 13.648438 14.609375 C 13.671875 14.609375 13.691406 14.609375 13.710938 14.609375 C 13.789062 14.609375 13.871094 14.609375 13.949219 14.609375 C 15.609375 14.609375 17.269531 14.609375 18.929688 14.609375 C 18.949219 14.609375 18.96875 14.609375 18.988281 14.609375 C 18.121094 14.691406 17.230469 14.730469 16.320312 14.730469 C 15.410156 14.730469 14.519531 14.691406 13.648438 14.609375 Z M 13.648438 14.609375 "/>
<path style=" stroke:none;fill-rule:evenodd;fill:rgb(99.607843%,69.411767%,75.686276%);fill-opacity:1;" d="M 12.570312 8.488281 C 12.589844 8.488281 12.609375 8.488281 12.628906 8.488281 C 12.628906 10.890625 12.628906 13.289062 12.628906 15.691406 C 15.089844 15.691406 17.550781 15.691406 20.011719 15.691406 C 20.011719 15.710938 20.011719 15.730469 20.011719 15.75 C 17.550781 15.75 15.089844 15.75 12.628906 15.75 C 12.589844 15.75 12.570312 15.730469 12.570312 15.691406 C 12.570312 13.289062 12.570312 10.890625 12.570312 8.488281 Z M 12.570312 8.488281 "/>
</g>
</svg>
