<?xml version="1.0" encoding="UTF-8"?>
<svg xmlns="http://www.w3.org/2000/svg" xmlns:xlink="http://www.w3.org/1999/xlink" width="24px" height="24px" viewBox="0 0 24 24" version="1.1">
<g id="surface1">
<path style=" stroke:none;fill-rule:nonzero;fill:rgb(0%,0%,0%);fill-opacity:1;" d="M 4.351562 1.660156 C 3.390625 1.660156 2.664062 1.957031 2.167969 2.554688 C 1.671875 3.148438 1.425781 4.015625 1.425781 5.15625 L 1.425781 8.632812 C 1.425781 9.4375 1.339844 10.054688 1.164062 10.488281 C 0.992188 10.925781 0.671875 11.328125 0.207031 11.707031 C 0.0664062 11.820312 0 11.914062 0 11.984375 C 0 12.058594 0.0664062 12.152344 0.203125 12.261719 C 0.679688 12.648438 1.003906 13.058594 1.171875 13.488281 C 1.34375 13.917969 1.425781 14.535156 1.425781 15.339844 L 1.425781 18.800781 C 1.425781 19.949219 1.675781 20.824219 2.175781 21.417969 C 2.675781 22.015625 3.398438 22.3125 4.347656 22.3125 L 5.230469 22.3125 C 5.609375 22.3125 5.847656 22.292969 5.949219 22.257812 C 6.050781 22.222656 6.101562 22.128906 6.101562 21.984375 C 6.101562 21.785156 5.96875 21.652344 5.703125 21.589844 L 5.21875 21.480469 C 4.15625 21.238281 3.625 20.1875 3.625 18.332031 L 3.625 15.039062 C 3.625 13.789062 3.320312 12.910156 2.71875 12.394531 L 2.488281 12.203125 C 2.375 12.105469 2.320312 12.035156 2.320312 11.984375 C 2.320312 11.929688 2.375 11.855469 2.488281 11.769531 L 2.71875 11.574219 C 3.320312 11.0625 3.625 10.179688 3.625 8.933594 L 3.625 5.640625 C 3.625 4.53125 3.757812 3.761719 4.027344 3.332031 C 4.300781 2.902344 4.859375 2.570312 5.714844 2.335938 C 5.972656 2.261719 6.101562 2.144531 6.101562 1.984375 C 6.101562 1.769531 5.8125 1.660156 5.230469 1.660156 Z M 18.769531 1.6875 C 18.1875 1.6875 17.898438 1.796875 17.898438 2.015625 C 17.898438 2.175781 18.027344 2.292969 18.285156 2.363281 C 19.140625 2.597656 19.699219 2.929688 19.972656 3.359375 C 20.242188 3.789062 20.375 4.558594 20.375 5.667969 L 20.375 8.964844 C 20.375 10.210938 20.679688 11.089844 21.28125 11.605469 L 21.511719 11.796875 C 21.625 11.886719 21.679688 11.957031 21.679688 12.015625 C 21.679688 12.0625 21.625 12.136719 21.511719 12.230469 L 21.28125 12.425781 C 20.679688 12.9375 20.375 13.820312 20.375 15.066406 L 20.375 18.359375 C 20.375 20.21875 19.84375 21.265625 18.78125 21.507812 L 18.296875 21.617188 C 18.03125 21.679688 17.898438 21.8125 17.898438 22.015625 C 17.898438 22.160156 17.949219 22.25 18.050781 22.285156 C 18.152344 22.320312 18.390625 22.339844 18.769531 22.339844 L 19.652344 22.339844 C 20.601562 22.339844 21.324219 22.042969 21.824219 21.445312 C 22.324219 20.851562 22.574219 19.980469 22.574219 18.828125 L 22.574219 15.367188 C 22.574219 14.5625 22.660156 13.945312 22.828125 13.515625 C 22.996094 13.085938 23.320312 12.679688 23.796875 12.292969 C 23.933594 12.179688 24 12.085938 24 12.015625 C 24 11.941406 23.933594 11.847656 23.796875 11.738281 C 23.328125 11.359375 23.007812 10.953125 22.835938 10.519531 C 22.660156 10.085938 22.574219 9.464844 22.574219 8.660156 L 22.574219 5.1875 C 22.574219 4.046875 22.328125 3.175781 21.832031 2.582031 C 21.335938 1.984375 20.609375 1.6875 19.652344 1.6875 Z M 7.683594 9.734375 C 6.226562 9.734375 5.042969 10.847656 5.042969 12.214844 L 6.0625 12.214844 C 6.0625 11.375 6.789062 10.691406 7.683594 10.691406 C 8.574219 10.691406 9.300781 11.375 9.300781 12.214844 L 10.320312 12.214844 C 10.320312 10.847656 9.140625 9.734375 7.683594 9.734375 Z M 16.089844 9.734375 C 14.632812 9.734375 13.449219 10.847656 13.449219 12.214844 L 14.46875 12.214844 C 14.46875 11.375 15.195312 10.691406 16.089844 10.691406 C 16.980469 10.691406 17.710938 11.375 17.710938 12.214844 L 18.730469 12.214844 C 18.730469 10.847656 17.546875 9.734375 16.089844 9.734375 Z M 9.710938 14.359375 L 9.710938 14.921875 C 9.710938 16.199219 10.773438 17.238281 12.074219 17.238281 C 13.382812 17.238281 14.441406 16.199219 14.441406 14.921875 L 14.441406 14.359375 L 13.507812 14.359375 L 13.507812 14.921875 C 13.507812 15.796875 12.75 16.347656 12.074219 16.347656 C 11.402344 16.347656 10.597656 16.074219 10.597656 14.921875 L 10.597656 14.359375 Z M 9.710938 14.359375 "/>
</g>
</svg>
