<?xml version="1.0" encoding="UTF-8"?>
<svg xmlns="http://www.w3.org/2000/svg" xmlns:xlink="http://www.w3.org/1999/xlink" width="24px" height="24px" viewBox="0 0 24 24" version="1.1">
<g id="surface1">
<path style="fill:none;stroke-width:1;stroke-linecap:round;stroke-linejoin:round;stroke:rgb(0%,0%,0%);stroke-opacity:1;stroke-miterlimit:4;" d="M 6.5 6.617188 L 12.101562 6.617188 C 12.65625 6.617188 13.101562 7.0625 13.101562 7.617188 L 13.101562 35.460938 C 13.101562 36.007812 12.65625 36.460938 12.101562 36.460938 L 6.5 36.460938 C 5.945312 36.460938 5.5 36.007812 5.5 35.460938 L 5.5 7.617188 C 5.5 7.0625 5.945312 6.617188 6.5 6.617188 Z M 6.5 6.617188 " transform="matrix(0.5,0,0,0.5,0,0)"/>
<path style="fill:none;stroke-width:1;stroke-linecap:round;stroke-linejoin:round;stroke:rgb(0%,0%,0%);stroke-opacity:1;stroke-miterlimit:4;" d="M 17.5625 6.617188 L 23.164062 6.617188 C 23.71875 6.617188 24.164062 7.0625 24.164062 7.617188 L 24.164062 35.460938 C 24.164062 36.007812 23.71875 36.460938 23.164062 36.460938 L 17.5625 36.460938 C 17.007812 36.460938 16.5625 36.007812 16.5625 35.460938 L 16.5625 7.617188 C 16.5625 7.0625 17.007812 6.617188 17.5625 6.617188 Z M 17.5625 6.617188 " transform="matrix(0.5,0,0,0.5,0,0)"/>
<path style="fill:none;stroke-width:1;stroke-linecap:round;stroke-linejoin:round;stroke:rgb(0%,0%,0%);stroke-opacity:1;stroke-miterlimit:4;" d="M 31.91261 6.34581 L 37.515195 6.342101 C 38.068924 6.347094 38.513306 6.792445 38.51806 7.340971 L 38.514768 35.183954 C 38.51725 35.739955 38.064424 36.182065 37.515898 36.186818 L 31.90811 36.18078 C 31.359584 36.185534 30.907727 35.737911 30.91272 35.184182 L 30.908537 7.338927 C 30.911258 6.792673 31.358881 6.340816 31.91261 6.34581 Z M 31.91261 6.34581 " transform="matrix(0.478391,-0.145403,0.145403,0.478391,-2.34175,5.50675)"/>
<path style="fill:none;stroke-width:1;stroke-linecap:round;stroke-linejoin:round;stroke:rgb(0%,0%,0%);stroke-opacity:1;stroke-miterlimit:4;" d="M 6.5 39.039062 L 41.5 39.039062 C 42.054688 39.039062 42.5 39.492188 42.5 40.039062 L 42.5 40.867188 C 42.5 41.421875 42.054688 41.867188 41.5 41.867188 L 6.5 41.867188 C 5.945312 41.867188 5.5 41.421875 5.5 40.867188 L 5.5 40.039062 C 5.5 39.492188 5.945312 39.039062 6.5 39.039062 Z M 6.5 39.039062 " transform="matrix(0.5,0,0,0.5,0,0)"/>
</g>
</svg>
